<svg xmlns="http://www.w3.org/2000/svg" version="1.1" xmlns:xlink="http://www.w3.org/1999/xlink" xmlns:svgjs="http://svgjs.dev/svgjs" width="1500" height="375" viewBox="0 0 1500 375"><g transform="matrix(1,0,0,1,0.25491573033696113,-0.3686797752809241)"><svg viewBox="0 0 356 89" data-background-color="#ffffff" preserveAspectRatio="xMidYMid meet" height="375" width="1500" xmlns="http://www.w3.org/2000/svg" xmlns:xlink="http://www.w3.org/1999/xlink"><g id="tight-bounds" transform="matrix(1,0,0,1,-0.06049999999996203,0.08750000000000568)"><svg viewBox="0 0 356.12052 88.82476504938387" height="88.82476504938387" width="356.12052"><g><svg viewBox="0 0 356.12052 88.82476504938387" height="88.82476504938387" width="356.12052"><g><svg viewBox="0 0 356.12052 88.82476504938387" height="88.82476504938387" width="356.12052"><g><path d="M0 88.825v-88.825h356.121v88.825z" fill="#ff5c40" stroke="transparent" stroke-width="0" rx="0%" data-fill-palette-color="tertiary"></path><path d="M3.283 85.541v-82.258h349.554v82.258z" fill="#ffffff" stroke="transparent" stroke-width="0" rx="0%" data-fill-palette-color="quaternary"></path><path d="M9.85 78.975v-69.125h336.421v69.125z" fill="#ff5c40" stroke="transparent" stroke-width="0" data-fill-palette-color="tertiary"></path></g><g transform="matrix(1,0,0,1,19.69974,19.69974)" id="textblocktransform"><svg viewBox="0 0 316.72104 49.42528504938388" height="49.42528504938388" width="316.72104" id="textblock"><g><svg viewBox="0 0 316.72104 49.42528504938388" height="49.42528504938388" width="316.72104"><g transform="matrix(1,0,0,1,0,0)"><svg width="316.72104" viewBox="1.54 -39.79 259.53 40.5" height="49.42528504938388" data-palette-color="#ffffff"><path d="M14.04-8.59L17.94-8.59 17.94 0 1.54 0 1.54-8.59 6.25-8.59 6.25-30.25 1.54-30.25 1.54-38.84 22.49-38.84 30.03-20.14 37.5-38.84 57.03-38.84 57.03-30.25 52.34-30.25 52.34-8.59 57.03-8.59 57.03 0 36.69 0 36.69-8.59 39.84-8.59 39.84-23.1 31.25 0 24.19 0 14.04-23.66 14.04-8.59ZM68.99-28.71L68.99-28.71Q65.94-28.71 63.96-30.15 61.98-31.59 61.98-34.3L61.98-34.3Q61.98-37.01 63.96-38.4 65.94-39.79 69.04-39.79L69.04-39.79Q72.14-39.79 74.08-38.43 76.02-37.06 76.02-34.3L76.02-34.3Q76.02-31.59 74.03-30.15 72.04-28.71 68.99-28.71ZM74.83-7.35L77.98-7.35 77.98 0 59.98 0 59.98-7.35 63.13-7.35 63.13-18.6 59.98-18.6 59.98-24.61 74.83-26.15 74.83-7.35ZM97.8-7.35L101.56-7.35 101.56 0 81.81 0 81.81-7.35 86.1-7.35 86.1-29.86 81.81-29.86 81.81-36.5 97.8-38.11 97.8-7.35ZM121.67-7.35L125.43-7.35 125.43 0 105.68 0 105.68-7.35 109.98-7.35 109.98-29.86 105.68-29.86 105.68-36.5 121.67-38.11 121.67-7.35ZM138.42-28.71L138.42-28.71Q135.37-28.71 133.39-30.15 131.41-31.59 131.41-34.3L131.41-34.3Q131.41-37.01 133.39-38.4 135.37-39.79 138.47-39.79L138.47-39.79Q141.57-39.79 143.51-38.43 145.45-37.06 145.45-34.3L145.45-34.3Q145.45-31.59 143.46-30.15 141.47-28.71 138.42-28.71ZM144.25-7.35L147.4-7.35 147.4 0 129.41 0 129.41-7.35 132.56-7.35 132.56-18.6 129.41-18.6 129.41-24.61 144.25-26.15 144.25-7.35ZM170.23 0.71L170.23 0.71Q164.81 0.71 160.36-1.59L160.36-1.59Q155.87-3.86 153.2-8.42 150.52-12.99 150.52-19.65L150.52-19.65Q150.52-25.22 152.55-29.79L152.55-29.79Q154.58-34.3 158.5-36.95 162.41-39.6 167.98-39.6L167.98-39.6Q170.81-39.6 173.07-38.27 175.33-36.94 176.33-34.91L176.33-34.91 177.33-38.84 184.92-38.84 184.92-22.9 177.14-22.9 177.14-23.71Q177.14-26.81 175.71-28.78 174.28-30.76 171.47-30.76L171.47-30.76Q169.59-30.76 168.01-29.32L168.01-29.32Q166.44-27.86 165.54-25.5 164.64-23.14 164.64-20.65L164.64-20.65Q164.64-15.75 167.08-12.98 169.52-10.21 173.77-10.21L173.77-10.21Q176.77-10.21 179.35-11.21 181.92-12.21 183.58-13.35L183.58-13.35 184.12-12.89 184.12-2.49Q181.02-0.71 177.58 0 174.13 0.71 170.23 0.71ZM213.36-8.79L217.37-8.79 217.37 0 195.61 0 195.61-8.79 199.62-8.79 199.62-30.25 196.18-30.25 195.13-23.56 188.27-23.56 188.27-38.84 224.81-38.84 224.81-23.56 217.98-23.56 216.93-30.25 213.36-30.25 213.36-8.79ZM246.22-8.59L250.86-8.59 250.86 0 229.01 0 229.01-8.59 233.72-8.59 233.72-30.25 229.01-30.25 229.01-38.84 261.07-38.84 261.07-23.14 254.01-23.14 252.47-30.25 246.22-30.25 246.22-22.9 251.67-22.9 251.67-16.65 246.22-16.65 246.22-8.59Z" opacity="1" transform="matrix(1,0,0,1,0,0)" fill="#ffffff" class="wordmark-text-0" data-fill-palette-color="quaternary" id="text-0"></path></svg></g></svg></g></svg></g></svg></g><g></g></svg></g><defs></defs></svg><rect width="356.12052" height="88.82476504938387" fill="none" stroke="none" visibility="hidden"></rect></g></svg></g></svg>